Coordinates
version=1
nRows=8
nColumns=36
inDegrees=yes

Units are S.I. units (second, meters, Newtons, ...)
If the header above contains a line with 'inDegrees', this indicates whether rotational values are in degrees (yes) or radians (no).

endheader
time	pelvis_tilt	pelvis_list	pelvis_rotation	pelvis_tx	pelvis_ty	pelvis_tz	hip_flexion_r	hip_adduction_r	hip_rotation_r	knee_angle_r	knee_angle_r_beta	ankle_angle_r	subtalar_angle_r	mtp_angle_r	hip_flexion_l	hip_adduction_l	hip_rotation_l	knee_angle_l	knee_angle_l_beta	ankle_angle_l	subtalar_angle_l	mtp_angle_l	lumbar_extension	lumbar_bending	lumbar_rotation	arm_flex_r	arm_add_r	arm_rot_r	elbow_flex_r	pro_sup_r	arm_flex_l	arm_add_l	arm_rot_l	elbow_flex_l	pro_sup_l
      1.76666670	    -33.28204858	     -1.78506599	      6.36445962	      0.59176726	      0.74249251	      0.22580633	     90.78493680	    -23.26978330	     -5.16536051	     79.21444241	      1.38255284	     25.56330258	      9.59623920	     -7.49999985	     89.15120777	    -11.54245840	     -0.81898389	     76.80746457	      1.34054315	     27.81298936	      1.15132294	     -7.49999985	    -33.33917419	      4.16684839	     10.17354321	     95.17773708	     -6.83048099	     74.41949270	    126.01706687	     92.16040843	     97.29234691	     -1.91588746	     61.38292823	    119.65520681	    102.94330985
      1.78333330	    -33.97407176	     -1.80358343	      6.56625109	      0.59515115	      0.73197085	      0.21168135	     92.72893495	    -23.79675207	     -4.94860914	     80.19289088	      1.39962998	     25.10664865	      8.94929306	     -7.49999985	     90.85996785	    -11.29296071	     -0.83487665	     77.75926043	      1.35715512	     27.33638104	      0.67511321	     -7.49999985	    -33.76381093	      4.53773666	      9.99858302	     95.91488957	     -7.36872063	     75.78941521	    128.41214533	     92.33339216	     97.63944033	     -0.45582707	     61.26123321	    120.70771912	    103.35540095
      1.80000000	    -34.44831693	     -1.84812108	      6.73573621	      0.59607944	      0.71954674	      0.21198131	     94.48728269	    -24.31800726	     -4.68543877	     81.42536937	      1.42114079	     25.01459966	      8.64653978	     -7.49999985	     92.37339069	    -11.06058495	     -0.74508262	     78.86881750	      1.37652054	     27.40412145	      0.61854184	     -7.49999985	    -34.23413457	      4.91867946	      9.84633959	     97.08710981	     -8.37210481	     76.22905292	    129.12269612	     92.67387279	     98.55708157	     -0.31879811	     60.43576153	    120.32315816	    104.00492189
      1.81666670	    -34.82037298	     -1.74627220	      6.90577956	      0.58317918	      0.71177626	      0.21280262	     96.27075867	    -24.68448859	     -4.10921483	     82.54730710	      1.44072230	     24.50316211	      7.86872447	     -7.49999985	     93.80042139	    -10.74910932	     -0.76730791	     79.91731969	      1.39482036	     27.36814835	      0.28538164	     -7.49999985	    -34.94184267	      4.92712839	     10.68673128	    100.41358756	     -9.80209268	     77.71770118	    130.05836347	     92.10489098	    100.46903722	      0.57738430	     59.71467626	    119.51145466	    103.81488909
      1.83333330	    -35.18997448	     -1.83549719	      7.10616437	      0.57924180	      0.70883608	      0.22152852	     97.77248669	    -24.98229447	     -3.82048946	     83.46950600	      1.45681770	     24.07675649	      7.52564665	     -7.49999986	     95.20761630	    -10.49587219	     -0.61225209	     80.78702272	      1.40999954	     27.39088543	      0.19703554	     -7.49999986	    -35.65970126	      5.10923309	     11.27130120	    102.50636302	    -10.57250438	     80.34961558	    128.18736991	     80.48170285	    101.75894827	     -0.61661351	     60.80162382	    117.49237157	    100.23593927
      1.85000000	    -35.56477375	     -1.82842324	      7.29375813	      0.56612575	      0.69987804	      0.21629663	     99.39143532	    -25.22349483	     -3.45253659	     84.32621922	      1.47177017	     23.50742928	      6.83686383	     -7.49999986	     96.59032141	    -10.28431133	     -0.61838035	     81.55299111	      1.42336821	     27.03353626	     -0.16453394	     -7.49999986	    -36.48711921	      5.10082768	     11.62996619	    105.85135694	    -11.64329739	     80.20296606	    128.05800230	     80.40001517	    104.51381784	     -0.09690299	     60.32700794	    115.94475139	    100.36794523
      1.86666670	    -35.94763405	     -1.79646050	      7.40773975	      0.57791760	      0.69977783	      0.20977622	    100.59018908	    -25.54703689	     -3.31982540	     84.82598881	      1.48049280	     23.25286485	      6.63453341	     -7.49999986	     97.61331311	    -10.04928147	     -0.64021713	     82.06464758	      1.43229830	     26.89183647	     -0.19095335	     -7.49999986	    -36.86689803	      5.21977286	     11.60201215	    106.18806211	    -11.65561559	     81.01612674	    129.68333776	     80.34644838	    104.28115552	      1.09501357	     60.19648989	    116.84600202	    100.15604376
      1.88333330	    -36.15525252	     -1.76420199	      7.41707725	      0.57715587	      0.69979591	      0.21021143	    101.21380259	    -25.74047520	     -3.31415169	     85.01094192	      1.48372084	     22.90034654	      6.13332720	     -7.49999986	     98.13335831	     -9.87153315	     -0.62124245	     82.35091984	      1.43729469	     26.83851086	     -0.32212924	     -7.49999986	    -37.31125569	      5.20217243	     12.44366814	    106.56429043	    -12.91352221	     82.78328105	    130.82614750	     78.61624276	    103.76982511	      2.59551329	     60.32522850	    116.06774570	     98.92443896
